<?xml version="1.0" encoding="UTF-8" standalone="no"?>
<!-- Created with Inkscape (http://www.inkscape.org/) -->

<svg
   sodipodi:docname="logo.svg"
   inkscape:version="1.1.1 (3bf5ae0d25, 2021-09-20)"
   id="svg5"
   version="1.1"
   viewBox="0 0 203.92722 17.99167"
   height="17.991671mm"
   width="203.92722mm"
   xmlns:inkscape="http://www.inkscape.org/namespaces/inkscape"
   xmlns:sodipodi="http://sodipodi.sourceforge.net/DTD/sodipodi-0.dtd"
   xmlns="http://www.w3.org/2000/svg"
   xmlns:svg="http://www.w3.org/2000/svg">
  <sodipodi:namedview
     id="namedview7"
     pagecolor="#505050"
     bordercolor="#eeeeee"
     borderopacity="1"
     inkscape:pageshadow="0"
     inkscape:pageopacity="0"
     inkscape:pagecheckerboard="0"
     inkscape:document-units="mm"
     showgrid="false"
     inkscape:zoom="1.4142136"
     inkscape:cx="291.68154"
     inkscape:cy="47.0226"
     inkscape:window-width="1920"
     inkscape:window-height="1017"
     inkscape:window-x="-8"
     inkscape:window-y="-8"
     inkscape:window-maximized="1"
     inkscape:current-layer="layer1"
     guidetolerance="20"
     objecttolerance="20"
     showguides="true"
     fit-margin-top="0"
     fit-margin-left="0"
     fit-margin-right="0"
     fit-margin-bottom="0">
    <inkscape:grid
       type="xygrid"
       id="grid44129"
       spacingx="0.65128246"
       spacingy="0.65128246"
       originx="0.396875"
       enabled="true"
       snapvisiblegridlinesonly="true"
       visible="true"
       originy="0.52916089" />
  </sodipodi:namedview>
  <defs
     id="defs2" />
  <g
     inkscape:groupmode="layer"
     id="layer2"
     inkscape:label="bignUS"
     style="display:none"
     transform="translate(0.39687498,0.52916093)">
    <rect
       style="fill:#ffffff;stroke-width:0.449424"
       id="rect44256-6"
       width="2.2203834"
       height="2.2047729"
       x="20.363127"
       y="1.7197917"
       ry="3.9737375e-07" />
    <rect
       style="fill:#ffffff;stroke-width:0.449424"
       id="rect44256-6-4"
       width="2.2203834"
       height="2.2047729"
       x="31.775928"
       y="1.7197917"
       ry="3.9737375e-07" />
    <rect
       style="fill:#ffffff;stroke-width:0.853862"
       id="rect44256-6-4-0"
       width="2.2203834"
       height="7.9584188"
       x="31.775928"
       y="4.4739585"
       ry="1.4343732e-06" />
    <rect
       style="fill:#ffffff;stroke-width:0.856139"
       id="rect44256-6-4-0-9"
       width="2.2203834"
       height="8.0009041"
       x="20.363127"
       y="4.4621615"
       ry="1.4420305e-06" />
    <rect
       style="fill:#ffffff;stroke-width:0.859229"
       id="rect44256-6-4-0-9-3"
       width="8.1158209"
       height="2.2047729"
       x="23.052069"
       y="1.7197917"
       ry="3.9737384e-07" />
    <rect
       style="fill:#ffffff;stroke-width:0.449424"
       id="rect44256-6-2"
       width="2.2203834"
       height="2.2047729"
       x="31.775928"
       y="13.008769"
       ry="3.9737375e-07" />
    <rect
       style="fill:#ffffff;stroke-width:0.449424"
       id="rect44256-6-0"
       width="2.2203834"
       height="2.2047729"
       x="20.363127"
       y="13.008769"
       ry="3.9737375e-07" />
  </g>
  <g
     inkscape:label="Layer 1"
     inkscape:groupmode="layer"
     id="layer1"
     transform="translate(-2.2880379,-139.50418)">
    <rect
       id="rect44156"
       width="17.119436"
       height="1.4111104"
       x="21.304966"
       y="147.79445"
       style="mix-blend-mode:multiply;fill:#000000;stroke:#ffffff;stroke-width:1.05833;stroke-linecap:round;stroke-linejoin:miter;stroke-miterlimit:4;stroke-dasharray:none;stroke-opacity:1;paint-order:stroke fill markers"
       ry="2.5432925e-07" />
    <rect
       style="fill:#000000;stroke:#ffffff;stroke-width:1.05833;stroke-linecap:round;stroke-linejoin:miter;stroke-miterlimit:4;stroke-dasharray:none;stroke-opacity:1;paint-order:stroke fill markers"
       id="rect44180"
       width="1.4266187"
       height="7.761106"
       x="29.151367"
       y="140.03334"
       ry="2.331351e-07" />
    <rect
       style="mix-blend-mode:multiply;fill:#000000;stroke:#ffffff;stroke-width:1.05833;stroke-linecap:round;stroke-linejoin:miter;stroke-miterlimit:4;stroke-dasharray:none;stroke-opacity:1;paint-order:stroke fill markers"
       id="rect44182"
       width="1.4266187"
       height="7.7611151"
       x="29.151367"
       y="149.20557"
       ry="2.3313538e-07" />
    <rect
       style="mix-blend-mode:multiply;fill:#000000;stroke:#ffffff;stroke-width:1.05833;stroke-linecap:round;stroke-linejoin:miter;stroke-miterlimit:4;stroke-dasharray:none;stroke-opacity:1;paint-order:stroke fill markers"
       id="rect44184"
       width="2.8532374"
       height="7.0555587"
       x="23.444895"
       y="144.97223"
       ry="6.3582365e-07" />
    <rect
       style="mix-blend-mode:multiply;fill:#000000;stroke-width:0.288202"
       id="rect44186"
       width="4.2798557"
       height="1.4111102"
       x="24.871513"
       y="143.56111"
       ry="2.5432919e-07" />
    <rect
       style="mix-blend-mode:multiply;fill:#000000;stroke:#ffffff;stroke-width:1.05833;stroke-linecap:round;stroke-linejoin:miter;stroke-miterlimit:4;stroke-dasharray:none;stroke-opacity:1;paint-order:stroke fill markers"
       id="rect44188"
       width="7.1330934"
       height="2.8222044"
       x="26.298132"
       y="142.15002"
       ry="5.0865549e-07" />
    <rect
       style="mix-blend-mode:multiply;fill:#000000;stroke:#ffffff;stroke-width:1.05833;stroke-linecap:round;stroke-linejoin:miter;stroke-miterlimit:4;stroke-dasharray:none;stroke-opacity:1;paint-order:stroke fill markers"
       id="rect44190"
       width="2.8532374"
       height="5.6444407"
       x="30.577988"
       y="142.15002"
       ry="2.5432919e-07" />
    <rect
       style="mix-blend-mode:multiply;fill:#000000;stroke:#ffffff;stroke-width:1.05833;stroke-linecap:round;stroke-linejoin:miter;stroke-miterlimit:4;stroke-dasharray:none;stroke-opacity:1;paint-order:stroke fill markers"
       id="rect44196"
       width="7.1330953"
       height="5.6444407"
       x="26.29813"
       y="149.20557"
       ry="2.5432919e-07" />
    <rect
       style="mix-blend-mode:multiply;fill:#000000;stroke-width:0.288202"
       id="rect44198"
       width="2.8532374"
       height="2.8222203"
       x="23.444895"
       y="149.20557"
       ry="2.5432919e-07" />
    <rect
       style="mix-blend-mode:multiply;fill:#000000;stroke:#ffffff;stroke-width:1.05833;stroke-linecap:round;stroke-linejoin:miter;stroke-miterlimit:4;stroke-dasharray:none;stroke-opacity:1;paint-order:stroke fill markers"
       id="rect44200"
       height="9.8777542"
       x="24.871513"
       y="143.56114"
       ry="1.7803014e-06"
       width="1.427" />
    <rect
       style="mix-blend-mode:multiply;fill:#000000;stroke:#ffffff;stroke-width:1.05833;stroke-linecap:round;stroke-linejoin:miter;stroke-miterlimit:4;stroke-dasharray:none;stroke-opacity:1;paint-order:stroke fill markers"
       id="rect44246"
       width="2.8532374"
       height="7.0555587"
       x="33.431225"
       y="144.97223"
       ry="6.3582365e-07" />
    <rect
       style="mix-blend-mode:multiply;fill:#000000;stroke:#ffffff;stroke-width:1.05833;stroke-linecap:round;stroke-linejoin:miter;stroke-miterlimit:4;stroke-dasharray:none;stroke-opacity:1;paint-order:stroke fill markers"
       id="rect44248"
       width="5.7064743"
       height="5.8346128"
       x="29.151369"
       y="143.56111"
       ry="1.0515921e-06" />
    <rect
       style="mix-blend-mode:multiply;fill:#000000;stroke-width:0.466941"
       id="rect44250"
       width="4.2798557"
       height="9.8777781"
       x="29.151369"
       y="144.97223"
       ry="4.4507641e-07" />
    <rect
       style="mix-blend-mode:multiply;fill:#000000;stroke-width:0.0763297;stroke-miterlimit:4;stroke-dasharray:none"
       id="rect44252"
       width="2.8532374"
       height="2.8222203"
       x="33.431225"
       y="149.20557"
       ry="2.5432919e-07" />
    <rect
       style="mix-blend-mode:multiply;fill:#000000;stroke-width:0.288202"
       id="rect44254"
       width="1.4266187"
       height="1.4111102"
       x="33.431225"
       y="152.02779"
       ry="2.5432919e-07" />
    <rect
       style="mix-blend-mode:multiply;fill:#000000;stroke:#ffffff;stroke-width:1.05833;stroke-linecap:round;stroke-linejoin:miter;stroke-miterlimit:4;stroke-dasharray:none;stroke-opacity:1;paint-order:stroke fill markers"
       id="rect44256"
       width="1.4266187"
       height="1.4111102"
       x="23.444895"
       y="142.15002"
       ry="2.5432919e-07" />
    <rect
       style="mix-blend-mode:multiply;fill:#000000;stroke:#ffffff;stroke-width:1.05833;stroke-linecap:round;stroke-linejoin:miter;stroke-miterlimit:4;stroke-dasharray:none;stroke-opacity:1;paint-order:stroke fill markers"
       id="rect44258"
       width="1.4266187"
       height="1.4111102"
       x="34.857841"
       y="142.15002"
       ry="2.5432919e-07" />
    <rect
       style="mix-blend-mode:multiply;fill:#000000;stroke:#ffffff;stroke-width:1.05833;stroke-linecap:round;stroke-linejoin:miter;stroke-miterlimit:4;stroke-dasharray:none;stroke-opacity:1;paint-order:stroke fill markers"
       id="rect44282"
       width="1.4266187"
       height="1.4111102"
       x="23.444895"
       y="153.43889"
       ry="2.5432919e-07" />
    <rect
       style="mix-blend-mode:multiply;fill:#000000;stroke:#ffffff;stroke-width:1.05833;stroke-linecap:round;stroke-linejoin:miter;stroke-miterlimit:4;stroke-dasharray:none;stroke-opacity:1;paint-order:stroke fill markers"
       id="rect44284"
       width="1.4266187"
       height="1.4111102"
       x="34.857841"
       y="153.43889"
       ry="2.5432919e-07" />
    <rect
       style="mix-blend-mode:multiply;fill:#000000;stroke:#ffffff;stroke-width:1.05833;stroke-linecap:round;stroke-linejoin:miter;stroke-miterlimit:4;stroke-dasharray:none;stroke-opacity:1;paint-order:stroke fill markers"
       id="rect158"
       width="9.9795361"
       height="5.6444459"
       x="24.878305"
       y="147.79445"
       ry="0" />
    <rect
       style="mix-blend-mode:multiply;fill:#ffffff;stroke-width:0.264583"
       id="rect59"
       width="2.8532352"
       height="2.8222198"
       x="26.298132"
       y="144.97223" />
    <g
       aria-label="POLYSWEEPER"
       id="text7099"
       style="font-size:16.9333px;line-height:1.25;letter-spacing:0px;word-spacing:0px;stroke:#ffffff;stroke-width:0.79375">
      <path
         d="m 14.533262,146.81328 v -3.38997 H 7.7615956 v 3.38997 z M 2.6849129,156.96664 v -16.9333 H 17.923229 l 1.694984,1.69499 v 6.77166 l -1.694984,1.69499 H 7.7615956 v 6.77166 z"
         style="font-family:MINE-SWEEPER;-inkscape-font-specification:MINE-SWEEPER"
         id="path36136" />
      <path
         d="m 39.924945,156.96664 v -16.9333 h 5.076683 v 13.55161 h 11.856617 v 3.38169 z"
         style="font-family:MINE-SWEEPER;-inkscape-font-specification:MINE-SWEEPER"
         id="path36140" />
      <path
         d="m 58.544959,156.96664 v -3.38169 h 11.848349 v -3.38997 H 60.231675 l -1.686716,-1.69499 v -8.46665 h 5.076683 v 6.77994 h 6.771666 v -6.77994 h 5.084951 v 15.24659 l -1.694983,1.68671 z"
         style="font-family:MINE-SWEEPER;-inkscape-font-specification:MINE-SWEEPER"
         id="path36142" />
      <path
         d="m 77.164977,156.96664 v -3.38169 h 11.848349 v -3.38997 H 78.851693 l -1.686716,-1.69499 v -6.77166 l 1.686716,-1.69499 h 15.246584 v 3.38997 H 82.24166 v 3.38997 h 10.161634 l 1.694983,1.68671 v 6.77994 l -1.694983,1.68671 z"
         style="font-family:MINE-SWEEPER;-inkscape-font-specification:MINE-SWEEPER"
         id="path36144" />
      <path
         d="m 99.166694,156.96664 -3.381699,-3.38169 v -13.55161 h 5.076685 v 11.85662 l 3.38997,-3.38997 3.38169,3.38997 v -11.85662 h 5.08496 v 13.55161 l -3.38997,3.38169 h -1.69499 l -3.38169,-3.38169 -3.38997,3.38169 z"
         style="font-family:MINE-SWEEPER;-inkscape-font-specification:MINE-SWEEPER"
         id="path36146" />
      <path
         d="m 116.09172,156.96664 -1.68671,-1.68671 v -13.5516 l 1.68671,-1.69499 h 15.24659 v 3.38997 h -11.85662 v 3.38997 h 11.85662 v 3.3817 h -11.85662 v 3.38997 h 11.85662 v 3.38169 z"
         style="font-family:MINE-SWEEPER;-inkscape-font-specification:MINE-SWEEPER"
         id="path36148" />
      <path
         d="m 134.71175,156.96664 -1.68672,-1.68671 v -13.5516 l 1.68672,-1.69499 h 15.24658 v 3.38997 h -11.85662 v 3.38997 h 11.85662 v 3.3817 h -11.85662 v 3.38997 h 11.85662 v 3.38169 z"
         style="font-family:MINE-SWEEPER;-inkscape-font-specification:MINE-SWEEPER"
         id="path36150" />
      <path
         d="m 163.49339,146.81328 v -3.38997 h -6.77167 v 3.38997 z m -11.84835,10.15336 v -16.9333 h 15.23832 l 1.69498,1.69499 v 6.77166 l -1.69498,1.69499 h -10.16164 v 6.77166 z"
         style="font-family:MINE-SWEEPER;-inkscape-font-specification:MINE-SWEEPER"
         id="path36152" />
      <path
         d="m 171.95177,156.96664 -1.68672,-1.68671 v -13.5516 l 1.68672,-1.69499 h 15.24658 v 3.38997 h -11.85662 v 3.38997 h 11.85662 v 3.3817 h -11.85662 v 3.38997 h 11.85662 v 3.38169 z"
         style="font-family:MINE-SWEEPER;-inkscape-font-specification:MINE-SWEEPER"
         id="path36154" />
      <path
         d="m 200.73343,146.81328 v -3.38997 h -6.77167 v 3.38997 z m -11.84835,10.15336 v -16.9333 h 15.23831 l 1.69499,1.69499 v 6.77166 l -1.69499,1.69499 h -3.38996 l 5.08495,5.08495 v 1.68671 h -3.38997 l -6.77167,-6.77166 h -1.69498 v 6.77166 z"
         style="font-family:MINE-SWEEPER;-inkscape-font-specification:MINE-SWEEPER"
         id="path36156" />
    </g>
  </g>
</svg>
